{
  "accessors": [
    {
      "bufferView": 2,
      "componentType": 5126,
      "count": 52047,
      "max": [
        4.919899940490723,
        9.241000175476074,
        20.06450080871582
      ],
      "min": [
        -4.409599781036377,
        -12.279600143432617,
        0.1145000010728836
      ],
      "type": "VEC3"
    },
    {
      "bufferView": 2,
      "byteOffset": 624564,
      "componentType": 5126,
      "count": 52047,
      "max": [
        0.9999802112579346,
        0.9999228715896606,
        0.9999641180038452
      ],
      "min": [
        -0.9999557733535767,
        -0.9997467398643494,
        -1.0
      ],
      "type": "VEC3"
    },
    {
      "bufferView": 1,
      "componentType": 5126,
      "count": 52047,
      "max": [
        0.9980000257492065,
        0.9955000281333923
      ],
      "min": [
        0.0019000000320374966,
        0.0019000000320374966
      ],
      "type": "VEC2"
    },
    {
      "bufferView": 0,
      "componentType": 5125,
      "count": 297126,
      "type": "SCALAR"
    },
    {
      "bufferView": 2,
      "byteOffset": 1249128,
      "componentType": 5126,
      "count": 50,
      "max": [
        1.9955999851226807,
        6.160399913787842,
        15.093600273132324
      ],
      "min": [
        -4.041299819946289,
        -8.133000373840332,
        0.12120000272989273
      ],
      "type": "VEC3"
    },
    {
      "bufferView": 2,
      "byteOffset": 1249728,
      "componentType": 5126,
      "count": 50,
      "max": [
        0.9778748750686646,
        0.9619312882423401,
        0.9752909541130066
      ],
      "min": [
        -0.9937039613723755,
        -0.9730773568153381,
        -0.6868839859962463
      ],
      "type": "VEC3"
    },
    {
      "bufferView": 1,
      "byteOffset": 416376,
      "componentType": 5126,
      "count": 50,
      "max": [
        0.8098000288009644,
        0.963699996471405
      ],
      "min": [
        0.12080000340938568,
        0.013299999758601189
      ],
      "type": "VEC2"
    },
    {
      "bufferView": 0,
      "byteOffset": 1188504,
      "componentType": 5125,
      "count": 78,
      "type": "SCALAR"
    }
  ],
  "asset": {
    "extras": {
      "author": "hideyoshi_0715 (https://sketchfab.com/hideyoshi_0715)",
      "license": "CC-BY-4.0 (http://creativecommons.org/licenses/by/4.0/)",
      "source": "https://sketchfab.com/3d-models/squirrel-and-acorn-figure-metashape-app-2859a3fdb9a9423aafe0b031af8ffa81",
      "title": "Squirrel and Acorn Figure - Metashape app"
    },
    "generator": "Sketchfab-14.65.0",
    "version": "2.0"
  },
  "bufferViews": [
    {
      "buffer": 0,
      "byteLength": 1188816,
      "name": "floatBufferViews",
      "target": 34963
    },
    {
      "buffer": 0,
      "byteLength": 416776,
      "byteOffset": 1188816,
      "byteStride": 8,
      "name": "floatBufferViews",
      "target": 34962
    },
    {
      "buffer": 0,
      "byteLength": 1250328,
      "byteOffset": 1605592,
      "byteStride": 12,
      "name": "floatBufferViews",
      "target": 34962
    }
  ],
  "buffers": [
    {
      "byteLength": 2855920,
      "uri": "scene.bin"
    }
  ],
  "extensionsUsed": [
    "KHR_materials_unlit"
  ],
  "images": [
    {
      "uri": "textures/defaultMat_baseColor.jpeg"
    }
  ],
  "materials": [
    {
      "doubleSided": true,
      "extensions": {
        "KHR_materials_unlit": {}
      },
      "name": "defaultMat",
      "pbrMetallicRoughness": {
        "baseColorTexture": {
          "index": 0
        },
        "metallicFactor": 0.0
      }
    }
  ],
  "meshes": [
    {
      "name": "Object_0",
      "primitives": [
        {
          "attributes": {
            "NORMAL": 1,
            "POSITION": 0,
            "TEXCOORD_0": 2
          },
          "indices": 3,
          "material": 0,
          "mode": 4
        }
      ]
    },
    {
      "name": "Object_1",
      "primitives": [
        {
          "attributes": {
            "NORMAL": 5,
            "POSITION": 4,
            "TEXCOORD_0": 6
          },
          "indices": 7,
          "material": 0,
          "mode": 4
        }
      ]
    }
  ],
  "nodes": [
    {
      "children": [
        1
      ],
      "matrix": [
        -1.0,
        0.0,
        0.0,
        0.0,
        0.0,
        -2.220446049250313e-16,
        1.0,
        0.0,
        0.0,
        1.0,
        2.220446049250313e-16,
        0.0,
        0.0,
        0.0,
        0.0,
        1.0
      ],
      "name": "Sketchfab_model"
    },
    {
      "children": [
        2,
        3
      ],
      "name": "Squirrel_and_Acorn_row.obj.cleaner.materialmerger.gles"
    },
    {
      "mesh": 0,
      "name": "Object_2"
    },
    {
      "mesh": 1,
      "name": "Object_3"
    }
  ],
  "samplers": [
    {
      "magFilter": 9729,
      "minFilter": 9987,
      "wrapS": 10497,
      "wrapT": 10497
    }
  ],
  "scene": 0,
  "scenes": [
    {
      "name": "Sketchfab_Scene",
      "nodes": [
        0
      ]
    }
  ],
  "textures": [
    {
      "sampler": 0,
      "source": 0
    }
  ]
}
