{
  "accessors": [
    {
      "bufferView": 3,
      "componentType": 5126,
      "count": 3282,
      "max": [
        13.993722915649414,
        76.73186492919922,
        9.798467636108398
      ],
      "min": [
        -14.282710075378418,
        -0.22582000494003296,
        -5.6045451164245605
      ],
      "type": "VEC3"
    },
    {
      "bufferView": 3,
      "byteOffset": 39384,
      "componentType": 5126,
      "count": 3282,
      "max": [
        0.9999313354492188,
        0.99904465675354,
        0.9998188018798828
      ],
      "min": [
        -0.9999567866325378,
        -0.9997727274894714,
        -0.9999070763587952
      ],
      "type": "VEC3"
    },
    {
      "bufferView": 4,
      "componentType": 5126,
      "count": 3282,
      "max": [
        0.9999949932098389,
        0.999755859375,
        0.999865710735321,
        1.0
      ],
      "min": [
        -0.9999656677246094,
        -0.9983074069023132,
        -0.9999833703041077,
        -1.0
      ],
      "type": "VEC4"
    },
    {
      "bufferView": 2,
      "componentType": 5126,
      "count": 3282,
      "max": [
        0.9973999857902527,
        2.065999984741211
      ],
      "min": [
        0.0031999999191612005,
        0.0015999999595806003
      ],
      "type": "VEC2"
    },
    {
      "bufferView": 1,
      "componentType": 5125,
      "count": 15867,
      "type": "SCALAR"
    },
    {
      "bufferView": 5,
      "componentType": 5126,
      "count": 3,
      "max": [
        100.0,
        0.0,
        0.0,
        0.0,
        0.0,
        100.0,
        1.0,
        0.0,
        0.0,
        0.0,
        100.0,
        0.0,
        0.0,
        0.0,
        0.0,
        1.0
      ],
      "min": [
        1.0,
        0.0,
        0.0,
        0.0,
        0.0,
        6.123234262925839e-17,
        0.0,
        0.0,
        0.0,
        -1.0,
        6.123234262925839e-17,
        0.0,
        0.0,
        0.0,
        0.0,
        1.0
      ],
      "type": "MAT4"
    },
    {
      "bufferView": 0,
      "componentType": 5123,
      "count": 3282,
      "type": "VEC4"
    },
    {
      "bufferView": 4,
      "byteOffset": 52512,
      "componentType": 5126,
      "count": 3282,
      "max": [
        1.0,
        0.0,
        0.0,
        0.0
      ],
      "min": [
        1.0,
        0.0,
        0.0,
        0.0
      ],
      "type": "VEC4"
    }
  ],
  "asset": {
    "extras": {
      "author": "NO DONT EAT ME CASEOH (Ferris wheel) (https://sketchfab.com/NO.DONT.EAT.ME.CASEOH)",
      "license": "CC-BY-4.0 (http://creativecommons.org/licenses/by/4.0/)",
      "source": "https://sketchfab.com/3d-models/slender-fortress-slenderman-0b2ff8d994364d89932ddddf4a02b034",
      "title": "Slender fortress Slenderman"
    },
    "generator": "Sketchfab-16.21.0",
    "version": "2.0"
  },
  "bufferViews": [
    {
      "buffer": 0,
      "byteLength": 26256,
      "byteStride": 8,
      "name": "shortBufferViews",
      "target": 34962
    },
    {
      "buffer": 0,
      "byteLength": 63468,
      "byteOffset": 26256,
      "name": "floatBufferViews",
      "target": 34963
    },
    {
      "buffer": 0,
      "byteLength": 26256,
      "byteOffset": 89724,
      "byteStride": 8,
      "name": "floatBufferViews",
      "target": 34962
    },
    {
      "buffer": 0,
      "byteLength": 78768,
      "byteOffset": 115980,
      "byteStride": 12,
      "name": "floatBufferViews",
      "target": 34962
    },
    {
      "buffer": 0,
      "byteLength": 105024,
      "byteOffset": 194748,
      "byteStride": 16,
      "name": "floatBufferViews",
      "target": 34962
    },
    {
      "buffer": 0,
      "byteLength": 192,
      "byteOffset": 299772,
      "name": "floatBufferViews"
    }
  ],
  "buffers": [
    {
      "byteLength": 299964,
      "uri": "scene.bin"
    }
  ],
  "images": [
    {
      "uri": "textures/slender_baseColor.png"
    },
    {
      "uri": "textures/slender_metallicRoughness.png"
    },
    {
      "uri": "textures/slender_normal.png"
    }
  ],
  "materials": [
    {
      "doubleSided": true,
      "name": "slender",
      "normalTexture": {
        "index": 2
      },
      "pbrMetallicRoughness": {
        "baseColorTexture": {
          "index": 0
        },
        "metallicFactor": 0.0,
        "metallicRoughnessTexture": {
          "index": 1
        }
      }
    }
  ],
  "meshes": [
    {
      "name": "slenderman_slender_0",
      "primitives": [
        {
          "attributes": {
            "JOINTS_0": 6,
            "NORMAL": 1,
            "POSITION": 0,
            "TANGENT": 2,
            "TEXCOORD_0": 3,
            "WEIGHTS_0": 7
          },
          "indices": 4,
          "material": 0,
          "mode": 4
        }
      ]
    }
  ],
  "nodes": [
    {
      "children": [
        1
      ],
      "matrix": [
        1.0,
        0.0,
        0.0,
        0.0,
        0.0,
        2.220446049250313e-16,
        -1.0,
        0.0,
        0.0,
        1.0,
        2.220446049250313e-16,
        0.0,
        0.0,
        0.0,
        0.0,
        1.0
      ],
      "name": "Sketchfab_model"
    },
    {
      "children": [
        2
      ],
      "matrix": [
        0.009999999776482582,
        0.0,
        0.0,
        0.0,
        0.0,
        0.0,
        0.009999999776482582,
        0.0,
        0.0,
        -0.009999999776482582,
        0.0,
        0.0,
        0.0,
        0.0,
        0.0,
        1.0
      ],
      "name": "4a8e25c24f2849268c0162f64bed2aa0.fbx"
    },
    {
      "children": [
        3
      ],
      "name": "RootNode"
    },
    {
      "children": [
        4
      ],
      "matrix": [
        100.0,
        0.0,
        0.0,
        0.0,
        0.0,
        -1.629206793918314e-05,
        -99.99999999999868,
        0.0,
        0.0,
        99.99999999999868,
        -1.629206793918314e-05,
        0.0,
        0.0,
        0.0,
        0.0,
        1.0
      ],
      "name": "slenderman_skeleton"
    },
    {
      "children": [
        5,
        7,
        6
      ],
      "name": "Object_4"
    },
    {
      "children": [
        8
      ],
      "name": "_rootJoint"
    },
    {
      "matrix": [
        100.0,
        0.0,
        0.0,
        0.0,
        0.0,
        6.123233995736766e-15,
        -100.0,
        0.0,
        0.0,
        100.0,
        6.123233995736766e-15,
        0.0,
        0.0,
        0.0,
        0.0,
        1.0
      ],
      "name": "Object_6"
    },
    {
      "mesh": 0,
      "name": "Object_7",
      "skin": 0
    },
    {
      "children": [
        9
      ],
      "name": "static_prop_00",
      "rotation": [
        2.231235919951165e-30,
        -2.2312351676347804e-30,
        -0.7071066498756409,
        0.70710688829422
      ]
    },
    {
      "name": "static_prop_end_01",
      "rotation": [
        -6.310887241768095e-30,
        -1.3234889800848443e-23,
        2.6469779601696886e-23,
        1.0
      ],
      "translation": [
        -5.169878828456423e-26,
        0.0010000000474974513,
        -6.162975822039155e-33
      ]
    }
  ],
  "samplers": [
    {
      "magFilter": 9729,
      "minFilter": 9987,
      "wrapS": 10497,
      "wrapT": 10497
    }
  ],
  "scene": 0,
  "scenes": [
    {
      "name": "Sketchfab_Scene",
      "nodes": [
        0
      ]
    }
  ],
  "skins": [
    {
      "inverseBindMatrices": 5,
      "joints": [
        5,
        8,
        9
      ],
      "skeleton": 5
    }
  ],
  "textures": [
    {
      "sampler": 0,
      "source": 0
    },
    {
      "sampler": 0,
      "source": 1
    },
    {
      "sampler": 0,
      "source": 2
    }
  ]
}
